<?xml version="1.0" encoding="UTF-8"?>
<!DOCTYPE svg PUBLIC "-//W3C//DTD SVG 1.1//EN" "http://www.w3.org/Graphics/SVG/1.1/DTD/svg11.dtd">
<!-- Creator: CorelDRAW 2018 (64 Bit) -->
<svg xmlns="http://www.w3.org/2000/svg" xml:space="preserve" width="42.1337mm" height="45.2189mm" version="1.1" style="shape-rendering:geometricPrecision; text-rendering:geometricPrecision; image-rendering:optimizeQuality; fill-rule:evenodd; clip-rule:evenodd"
viewBox="0 0 2.3375 2.5087"
 xmlns:xlink="http://www.w3.org/1999/xlink">
 <defs>
  <style type="text/css">
   <![CDATA[
    .fil0 {fill:black}
    .fil1 {fill:#B3B3B3}
   ]]>
  </style>
 </defs>
 <g id="Camada_x0020_1">
  <metadata id="CorelCorpID_0Corel-Layer"/>
  <g id="_2287506299776">
   <path class="fil0" d="M1.0402 1.3414l0 1.1673 0.1286 -0.0723c0.0978,-0.055 0.1286,-0.113 0.1286,-0.2249 0,-0.3891 0,-0.7782 0,-1.1673l-0.1286 0.0723c-0.0976,0.0549 -0.1286,0.113 -0.1286,0.2249z"/>
   <path class="fil1" d="M0.4529 0.6492l0.7159 -0.4028 0.7159 0.4028 0.2642 -0.1486 -0.7159 -0.4028c-0.2316,-0.1303 -0.2967,-0.1303 -0.5283,-0l-0.7159 0.4028 0.2642 0.1486z"/>
   <path class="fil0" d="M2.0804 1.7708c0,0.071 0.0576,0.1286 0.1286,0.1286 0.071,0 0.1286,-0.0576 0.1286,-0.1286l-0 -1.0147c0,-0.1493 -0.1315,-0.2233 -0.2571,-0.1526 -0.259,0.145 -0.5243,0.295 -0.783,0.4406l0.0561 0.2657 0.7269 -0.409 0 0.87zm0.1286 -0.0862c-0.0476,0 -0.0862,0.0386 -0.0862,0.0862 0,0.0476 0.0386,0.0862 0.0862,0.0862 0.0476,0 0.0862,-0.0386 0.0862,-0.0862 0,-0.0476 -0.0386,-0.0862 -0.0862,-0.0862z"/>
   <path class="fil0" d="M0.2571 0.6035c-0.1257,-0.0707 -0.2571,0.0033 -0.2571,0.1526 -0,0.3548 0,0.6631 0,1.018 -0,0.112 0.0325,0.1676 0.1315,0.2233l0.9087 0.5113 -0.0561 -0.3289 -0.7269 -0.409 0 -0.87 0.7269 0.409 0 -0.2973 -0.7269 -0.409z"/>
  </g>
 </g>
</svg>
